<svg width="32" height="32" viewBox="0 0 32 32" fill="none" xmlns="http://www.w3.org/2000/svg">
<g clip-path="url(#clip0)">
<path d="M8.53316 6.93383V4.80053C8.53316 4.50601 8.29437 4.26721 7.99984 4.26721H0.533323C0.238797 4.26721 0 4.50601 0 4.80053V6.93383H8.53316Z" fill="#979B9D"/>
<path d="M0 8.00049V25.6001H8.53316V8.00049H0ZM6.39987 14.9337H2.13329C1.83877 14.9337 1.59997 14.6949 1.59997 14.4004V10.1338C1.59997 9.83925 1.83877 9.60046 2.13329 9.60046H6.39987C6.6944 9.60046 6.9332 9.83925 6.9332 10.1338V14.4004C6.9332 14.6949 6.6944 14.9337 6.39987 14.9337Z" fill="#979B9D"/>
<path d="M0 28.8V31.4667C0 31.7612 0.238797 32 0.533323 32H7.99984C8.29437 32 8.53316 31.7612 8.53316 31.4667V28.8H0Z" fill="#979B9D"/>
<path d="M0 26.6667H8.53316V27.7334H0V26.6667Z" fill="#979B9D"/>
<path d="M9.59961 26.6667H16.5328V27.7334H9.59961V26.6667Z" fill="#979B9D"/>
<path d="M16.5328 2.1339V0.533933C16.5328 0.239408 16.294 0.000610352 15.9995 0.000610352H10.1329C9.83841 0.000610352 9.59961 0.239408 9.59961 0.533933V2.1339H16.5328Z" fill="#979B9D"/>
<path d="M9.59961 5.86719H16.5328V25.6001H9.59961V5.86719Z" fill="#979B9D"/>
<path d="M9.59961 28.8V31.4667C9.59961 31.7612 9.83841 32 10.1329 32H15.9995C16.294 32 16.5328 31.7612 16.5328 31.4667V28.8H9.59961Z" fill="#979B9D"/>
<path d="M9.59961 3.20056H16.5328V4.80053H9.59961V3.20056Z" fill="#979B9D"/>
<path d="M17.5859 11.0447L17.8713 12.1402L26.9035 9.73166L26.6178 8.63611L17.5859 11.0447Z" fill="#979B9D"/>
<path d="M22.045 28.1298L31.0769 25.7212L30.505 23.5288L21.4727 25.9374L22.045 28.1298Z" fill="#979B9D"/>
<path d="M30.2356 22.4968L27.175 10.7637L18.1426 13.1722L21.2032 24.9053L30.2356 22.4968Z" fill="#979B9D"/>
<path d="M17.3186 10.0126L26.3502 7.60431L25.5846 4.66713C25.5057 4.38276 25.2151 4.21271 24.9286 4.28328L16.9288 6.41657C16.6462 6.49391 16.4777 6.78323 16.5499 7.06708L17.3186 10.0126Z" fill="#979B9D"/>
<path d="M31.3449 26.7532L22.3125 29.1617L22.9487 31.6C22.9857 31.7374 23.0758 31.8546 23.1995 31.9255C23.2799 31.9742 23.3721 31.9999 23.4661 31.9999C23.5127 31.9999 23.5594 31.9945 23.6047 31.9841L31.6045 29.8508C31.887 29.7734 32.0555 29.4838 31.9834 29.2L31.3449 26.7532Z" fill="#979B9D"/>
</g>
<defs>
<clipPath id="clip0">
<rect width="32" height="32" fill="white"/>
</clipPath>
</defs>
</svg>
