<svg width="32" height="32" viewBox="0 0 32 32" fill="none" xmlns="http://www.w3.org/2000/svg">
<g clip-path="url(#clip0)">
<path d="M20.1728 17.3333C19.4469 17.3333 18.8601 17.9307 18.8601 18.6667V24C18.8601 24.7347 18.272 25.3333 17.5474 25.3333H13.6094V5.33333C13.6094 4.19467 12.8952 3.17733 11.8215 2.79867L11.4329 2.66667H17.5474C18.272 2.66667 18.8601 3.26533 18.8601 4V8C18.8601 8.736 19.4469 9.33333 20.1728 9.33333C20.8987 9.33333 21.4855 8.736 21.4855 8V4C21.4855 1.79467 19.7186 0 17.5474 0H3.43598C3.3861 0 3.34409 0.0226667 3.29552 0.0293333C3.23251 0.024 3.17213 0 3.10781 0C1.65991 0 0.482422 1.196 0.482422 2.66667V26.6667C0.482422 27.8053 1.19653 28.8227 2.27031 29.2013L10.1701 31.876C10.4379 31.96 10.7044 32 10.984 32C12.4319 32 13.6094 30.804 13.6094 29.3333V28H17.5474C19.7186 28 21.4855 26.2053 21.4855 24V18.6667C21.4855 17.9307 20.8987 17.3333 20.1728 17.3333Z" fill="black"/>
<path d="M31.6019 12.3906L26.3511 7.0573C25.9757 6.67597 25.4112 6.5613 24.9203 6.76797C24.4306 6.97463 24.1103 7.4613 24.1103 7.99997V12H18.8596C18.135 12 17.5469 12.5973 17.5469 13.3333C17.5469 14.0693 18.135 14.6666 18.8596 14.6666H24.1103V18.6666C24.1103 19.2053 24.4306 19.692 24.9203 19.8986C25.4112 20.1053 25.9757 19.9906 26.3511 19.6093L31.6019 14.276C32.1152 13.7546 32.1152 12.912 31.6019 12.3906Z" fill="black"/>
</g>
<defs>
<clipPath id="clip0">
<rect width="31.5046" height="32" fill="white" transform="translate(0.482422)"/>
</clipPath>
</defs>
</svg>
