<svg width="32" height="32" viewBox="0 0 32 32" fill="none" xmlns="http://www.w3.org/2000/svg">
<path d="M13.1875 15.0625V16.9375H15.4563L14.4062 15.0625H13.1875Z" fill="#979B9D"/>
<path d="M16 0C7.2063 0 0 7.2063 0 16C0 24.7937 7.2063 32 16 32C24.7937 32 32 24.7937 32 16C32 7.2063 24.7937 0 16 0ZM25.9719 25.9719C23.2937 28.6501 19.7522 30.125 16 30.125C12.2478 30.125 8.7063 28.6501 6.02808 25.9719C3.34985 23.2937 1.875 19.7522 1.875 16C1.875 12.2478 3.34985 8.7063 6.02808 6.02808C8.7063 3.34985 12.2478 1.875 16 1.875C19.7522 1.875 23.2937 3.34985 25.9719 6.02808C28.6501 8.7063 30.125 12.2478 30.125 16C30.125 19.7522 28.6501 23.2937 25.9719 25.9719Z" fill="#979B9D"/>
<path d="M24.646 7.354C22.322 5.03003 19.2515 3.75 16 3.75C12.7485 3.75 9.67798 5.03003 7.354 7.354C5.03003 9.67798 3.75 12.7485 3.75 16C3.75 19.2515 5.03003 22.322 7.354 24.646C9.67798 26.97 12.7485 28.25 16 28.25C19.2515 28.25 22.322 26.97 24.646 24.646C26.97 22.322 28.25 19.2515 28.25 16C28.25 12.7485 26.97 9.67798 24.646 7.354ZM22.5625 15.0625H20.6875V16.9375H22.5625V18.8125H20.6875V23.5H19.075L16.4875 18.8125H13.1875V23.5H11.3125V18.8125H9.4375V16.9375H11.3125V15.0625H9.4375V13.1875H11.3125V8.5H12.925L15.5125 13.1875H18.8125V8.5H20.6875V13.1875H22.5625V15.0625Z" fill="#979B9D"/>
<path d="M17.593 16.9375H18.8118V15.0625H16.543L17.593 16.9375Z" fill="#979B9D"/>
</svg>
