<svg width="72" height="72" viewBox="0 0 72 72" fill="none" xmlns="http://www.w3.org/2000/svg">
<g clip-path="url(#clip0)">
<path d="M29.6719 33.8909V38.1096H34.7767L32.4141 33.8909H29.6719Z" fill="#222D32"/>
<path d="M36 0.000244141C16.2142 0.000244141 0 16.2144 0 36.0002C0 55.7861 16.2142 72.0002 36 72.0002C55.7858 72.0002 72 55.7861 72 36.0002C72 16.2144 55.7858 0.000244141 36 0.000244141ZM58.4368 58.4371C52.4108 64.4631 44.4424 67.7815 36 67.7815C27.5576 67.7815 19.5892 64.4631 13.5632 58.4371C7.53717 52.4111 4.21875 44.4427 4.21875 36.0002C4.21875 27.5578 7.53717 19.5894 13.5632 13.5634C19.5892 7.53741 27.5576 4.21899 36 4.21899C44.4424 4.21899 52.4108 7.53741 58.4368 13.5634C64.4628 19.5894 67.7812 27.5578 67.7812 36.0002C67.7812 44.4427 64.4628 52.4111 58.4368 58.4371Z" fill="#222D32"/>
<path d="M55.4535 16.5468C50.2245 11.3178 43.3158 8.43774 36 8.43774C28.6842 8.43774 21.7755 11.3178 16.5465 16.5468C11.3176 21.7757 8.4375 28.6844 8.4375 36.0002C8.4375 43.316 11.3176 50.2248 16.5465 55.4537C21.7755 60.6827 28.6842 63.5627 36 63.5627C43.3158 63.5627 50.2245 60.6827 55.4535 55.4537C60.6824 50.2248 63.5625 43.316 63.5625 36.0002C63.5625 28.6844 60.6824 21.7757 55.4535 16.5468ZM50.7656 33.8909H46.5469V38.1096H50.7656V42.3284H46.5469V52.8752H42.9186L37.097 42.3284H29.6719V52.8752H25.4531V42.3284H21.2344V38.1096H25.4531V33.8909H21.2344V29.6721H25.4531V19.1252H29.0814L34.903 29.6721H42.3281V19.1252H46.5469V29.6721H50.7656V33.8909Z" fill="#222D32"/>
<path d="M39.5853 38.1096H42.3275V33.8909H37.2227L39.5853 38.1096Z" fill="#222D32"/>
</g>
<defs>
<clipPath id="clip0">
<rect width="72" height="72" fill="white" transform="translate(0 0.000244141)"/>
</clipPath>
</defs>
</svg>
