<svg width="36" height="36" viewBox="0 0 36 36" fill="none" xmlns="http://www.w3.org/2000/svg">
<path d="M18 11.9531C21.3008 11.9531 23.9766 9.27733 23.9766 5.97656C23.9766 2.6758 21.3008 0 18 0C14.6992 0 12.0234 2.6758 12.0234 5.97656C12.0234 9.27733 14.6992 11.9531 18 11.9531Z" fill="#979B9D"/>
<path d="M22.392 12.7628C21.1266 13.5846 19.6184 14.0625 18.0004 14.0625C16.3824 14.0625 14.8742 13.5846 13.6088 12.7628C12.2099 13.2974 10.9129 14.0861 9.78516 15.0983L18.0004 18.1791L26.2156 15.0983C25.0879 14.0861 23.7909 13.2973 22.392 12.7628Z" fill="#979B9D"/>
<path d="M30.6562 21.7969H29.9531C29.3707 21.7969 28.8984 22.2691 28.8984 22.8516V25.6641C28.8984 26.2465 29.3707 26.7188 29.9531 26.7188H30.6562C32.0154 26.7188 33.1172 25.617 33.1172 24.2578C33.1172 22.8987 32.0154 21.7969 30.6562 21.7969Z" fill="#979B9D"/>
<path d="M6.14925 16.4726C5.86491 16.6697 5.69531 16.9935 5.69531 17.3394V19.6875H6.04688C7.79154 19.6875 9.21094 21.1069 9.21094 22.8516V25.6641C9.21094 27.4088 7.79154 28.8282 6.04688 28.8282H5.69531V31.0504C5.69531 31.4901 5.96805 31.8836 6.37966 32.0379L16.9453 36V20.0363L7.12034 16.3519C6.79641 16.2303 6.43352 16.2754 6.14925 16.4726Z" fill="#979B9D"/>
<path d="M26.7891 25.6641V22.8516C26.7891 21.1069 28.2085 19.6875 29.9531 19.6875H30.3047V17.3394C30.3047 16.9935 30.1351 16.6697 29.8507 16.4726C29.5664 16.2754 29.2035 16.2303 28.8797 16.3519L19.0547 20.0363V36L29.6203 32.0379C30.0319 31.8836 30.3047 31.4901 30.3047 31.0504V28.8282H29.9531C28.2085 28.8282 26.7891 27.4088 26.7891 25.6641Z" fill="#979B9D"/>
<path d="M7.10156 25.6641V22.8516C7.10156 22.2691 6.62934 21.7969 6.04688 21.7969H5.34375C3.98461 21.7969 2.88281 22.8987 2.88281 24.2578C2.88281 25.617 3.98461 26.7188 5.34375 26.7188H6.04688C6.62934 26.7188 7.10156 26.2465 7.10156 25.6641Z" fill="#979B9D"/>
</svg>
