<svg width="32" height="32" viewBox="0 0 32 32" fill="none" xmlns="http://www.w3.org/2000/svg">
<g clip-path="url(#clip0)">
<path d="M17.4293 15.3395C17.7922 15.1509 18.1965 15.0512 18.616 15.0512C19.3112 15.0512 19.9647 15.3254 20.4574 15.8232L21.518 14.746C24.1426 15.6805 27.1782 15.0823 29.2763 12.9512C31.0418 11.158 31.738 8.69085 31.3663 6.36527C31.3254 6.10916 31.1469 5.89793 30.9039 5.81823C30.6609 5.73843 30.3941 5.80328 30.2135 5.98679L28.6388 7.5863C27.3564 8.88888 25.277 8.88888 23.9946 7.5863C22.7121 6.28372 22.7121 4.17167 23.9946 2.86909L25.5694 1.26957C25.75 1.08607 25.8144 0.815113 25.7357 0.568177C25.6572 0.321132 25.4489 0.140243 25.1966 0.0986502C22.9071 -0.278849 20.4781 0.428335 18.7127 2.22151C16.5834 4.38433 16.0103 7.52746 16.9897 10.2201L14.6895 12.5565L17.4293 15.3395Z" fill="#979B9D"/>
<path d="M13.2379 19.5732L10.5096 16.802L0.969437 26.4921C-0.271062 27.7521 -0.271062 29.795 0.969437 31.055C2.20994 32.315 4.22116 32.315 5.46166 31.055L13.6859 22.7015C12.8564 21.8545 12.7069 20.5757 13.2379 19.5732Z" fill="#979B9D"/>
<path d="M19.3242 16.986C19.1291 16.7879 18.8733 16.6888 18.6176 16.6888C18.3619 16.6888 18.1061 16.7879 17.9111 16.986L17.3415 17.5645L7.19657 7.26001L7.67076 6.77836C8.10281 6.33962 8.04918 5.6118 7.55672 5.24347L3.41757 2.14717C3.01979 1.84969 2.46779 1.89194 2.11849 2.24673L0.361026 4.03194C0.0117255 4.38673 -0.0298681 4.94752 0.263007 5.35144L3.31127 9.55568C3.6739 10.0558 4.39002 10.1108 4.8224 9.6715L5.29659 9.18975L15.4416 19.4942L14.832 20.1134C14.4417 20.5098 14.4417 21.1524 14.832 21.5488L24.191 31.0549C25.4315 32.3149 27.4427 32.3149 28.6832 31.0549C29.9237 29.7949 29.9237 27.7521 28.6832 26.4921L19.3242 16.986Z" fill="#979B9D"/>
</g>
<defs>
<clipPath id="clip0">
<rect width="31.5046" height="32" fill="white"/>
</clipPath>
</defs>
</svg>
